<?xml version="1.0" standalone="no"?>
<!DOCTYPE svg PUBLIC "-//W3C//DTD SVG 20010904//EN"
 "http://www.w3.org/TR/2001/REC-SVG-20010904/DTD/svg10.dtd">
<svg version="1.0" xmlns="http://www.w3.org/2000/svg"
 width="512.000000pt" height="512.000000pt" viewBox="0 0 512.000000 512.000000"
 preserveAspectRatio="xMidYMid meet">

<g transform="translate(0.000000,512.000000) scale(0.100000,-0.100000)"
fill="#000000" stroke="none">
<path d="M1195 5109 c-596 -67 -1083 -534 -1177 -1130 -10 -67 -13 -360 -13
-1429 0 -1249 1 -1352 18 -1440 50 -266 167 -495 351 -687 231 -243 513 -379
851 -413 76 -8 513 -10 1425 -8 1217 4 1321 5 1390 22 555 131 940 520 1057
1066 17 80 18 169 18 1455 0 1518 3 1444 -65 1648 -72 212 -166 364 -330 527
-163 164 -315 259 -525 329 -204 68 -120 64 -1590 67 -735 1 -1366 -2 -1410
-7z m1595 -1035 c177 -28 381 -110 535 -214 305 -208 518 -537 580 -900 21
-121 21 -345 0 -463 -80 -453 -387 -843 -807 -1023 -175 -75 -337 -107 -538
-107 -168 0 -272 16 -436 69 l-111 36 -322 -142 c-177 -79 -324 -140 -327
-137 -3 2 22 160 56 350 l60 345 -56 84 c-344 513 -297 1198 115 1662 315 355
771 516 1251 440z"/>
<path d="M2757 3336 c-75 -27 -112 -82 -105 -156 15 -151 205 -192 282 -61 68
117 -50 262 -177 217z"/>
<path d="M2074 3171 c-111 -50 -113 -210 -4 -268 52 -28 82 -29 136 -4 54 25
84 73 84 137 0 62 -27 107 -79 134 -49 25 -84 25 -137 1z"/>
<path d="M3217 2783 c-61 -73 -143 -149 -202 -190 -280 -189 -612 -231 -929
-117 -120 44 -161 47 -188 15 -24 -31 -23 -97 2 -139 22 -36 72 -61 185 -93
349 -98 730 -43 1018 148 131 87 307 272 307 322 0 54 -50 91 -120 91 -36 0
-46 -5 -73 -37z"/>
</g>
</svg>
